<svg width="112" height="112" viewBox="0 0 112 112" fill="none" xmlns="http://www.w3.org/2000/svg">
  <rect width="112" height="112" rx="20" fill="#F1FAFF"/>
  <path d="M80 32C80 43.0457 71.0457 52 60 52C48.9543 52 40 43.0457 40 32C40 20.9543 48.9543 12 60 12C71.0457 12 80 20.9543 80 32Z" fill="#2F241D"/>
  <path d="M61 20C67.0751 20 72 24.9249 72 31C72 37.0751 67.0751 42 61 42C54.9249 42 50 37.0751 50 31C50 24.9249 54.9249 20 61 20Z" fill="#F3C4B0"/>
  <path d="M26 97C26 74.3563 44.3563 56 67 56H73C95.6437 56 114 74.3563 114 97V112H26V97Z" fill="#D76F53"/>
  <rect x="12" y="58" width="26" height="30" rx="8" fill="#445B76"/>
  <path d="M20 58C20 50.268 26.268 44 34 44H46V58H20Z" fill="#2F241D"/>
  <path d="M84 46C84 36.6112 91.6112 29 101 29C110.389 29 118 36.6112 118 46C118 54.1322 106.805 69.7917 102.513 75.4898C101.727 76.5315 100.273 76.5315 99.4871 75.4898C95.1954 69.7917 84 54.1322 84 46Z" fill="#5F8F8A"/>
  <circle cx="101" cy="46" r="7" fill="white"/>
</svg>
